<svg width="320" height="236" viewBox="0 0 320 236" fill="none" xmlns="http://www.w3.org/2000/svg">
<path d="M244 0L245.188 4.81206L250 6L245.188 7.18794L244 12L242.812 7.18794L238 6L242.812 4.81206L244 0Z" fill="#00E8A2"/>
<path d="M286 47L287.782 54.2181L295 56L287.782 57.7819L286 65L284.218 57.7819L277 56L284.218 54.2181L286 47Z" fill="#FFA938"/>
<path d="M36 41L37.3859 46.6141L43 48L37.3859 49.3859L36 55L34.6141 49.3859L29 48L34.6141 46.6141L36 41Z" fill="#FFA938"/>
<circle cx="287.507" cy="83.6353" r="4" transform="rotate(50 287.507 83.6353)" fill="#7D5EF7"/>
<rect x="38" y="70" width="6" height="14" rx="2" transform="rotate(-60 38 70)" fill="#FFA938"/>
<circle cx="314.828" cy="122.899" r="4" transform="rotate(15 314.828 122.899)" fill="#FFA938"/>
<rect x="8" y="110" width="6" height="14" rx="2" transform="rotate(-40 8 110)" fill="#7D5EF7"/>
<circle cx="307.316" cy="41.9348" r="4" transform="rotate(-25 307.316 41.9348)" fill="#3385FF"/>
<rect x="262" y="14" width="6" height="14" rx="2" transform="rotate(35 262 14)" fill="#00E8A2"/>
<circle cx="212.899" cy="4.82843" r="4" transform="rotate(-15 212.899 4.82843)" fill="#FFA938"/>
<rect x="112" width="6" height="14" rx="2" transform="rotate(20 112 0)" fill="#7D5EF7"/>
<circle cx="65.4641" cy="11.4641" r="4" transform="rotate(-30 65.4641 11.4641)" fill="#3385FF"/>
<rect x="18" y="30" width="6" height="14" rx="2" fill="#00E8A2"/>
<path d="M65.6622 65.4433C67.3247 57.7977 77.0325 55.3773 82.0897 61.3474L91.8429 72.8611C93.8511 75.2319 96.8974 76.4626 99.9888 76.1523L115.003 74.6452C122.788 73.8637 128.09 82.3483 123.975 89.0029L116.038 101.837C114.404 104.479 114.175 107.757 115.425 110.601L121.498 124.414C124.647 131.577 118.216 139.241 110.616 137.384L95.9576 133.802C92.9394 133.064 89.7515 133.859 87.4329 135.927L76.1722 145.972C70.3333 151.18 61.0569 147.432 60.4747 139.629L59.3517 124.582C59.1205 121.483 57.3795 118.697 54.6961 117.131L41.6636 109.525C34.906 105.582 35.6039 95.6011 42.8446 92.6362L56.8087 86.9183C59.684 85.741 61.7959 83.2242 62.456 80.1881L65.6622 65.4433Z" fill="#FF9200"/>
<path d="M71.1998 62.7998L67.7998 78.0998" stroke="#FFD49C" stroke-width="6" stroke-linecap="round"/>
<path d="M237.91 61.3473C242.967 55.3772 252.675 57.7976 254.338 65.4432L257.544 80.188C258.204 83.2241 260.316 85.7409 263.191 86.9182L277.155 92.6361C284.396 95.601 285.094 105.582 278.336 109.525L265.304 117.131C262.62 118.697 260.879 121.483 260.648 124.582L259.525 139.629C258.943 147.432 249.666 151.18 243.828 145.971L232.567 135.927C230.248 133.859 227.06 133.064 224.042 133.802L209.384 137.384C201.784 139.241 195.352 131.577 198.501 124.414L204.574 110.601C205.825 107.757 205.596 104.479 203.962 101.837L196.025 89.0029C191.91 82.3483 197.212 73.8636 204.997 74.6451L220.011 76.1522C223.102 76.4626 226.149 75.2318 228.157 72.8611L237.91 61.3473Z" fill="#FF9200"/>
<path d="M244 61.6001L233.9 73.5001" stroke="#FFD49C" stroke-width="6" stroke-linecap="round"/>
<path d="M148.809 30.676C153.387 21.4003 166.613 21.4003 171.191 30.676L180.02 48.5647C181.838 52.2481 185.352 54.8012 189.417 55.3918L209.158 58.2604C219.394 59.7478 223.482 72.3273 216.075 79.5475L201.79 93.4719C198.848 96.339 197.506 100.47 198.2 104.518L201.573 124.18C203.321 134.375 192.62 142.15 183.465 137.336L165.807 128.053C162.172 126.142 157.828 126.142 154.193 128.053L136.535 137.336C127.38 142.15 116.679 134.375 118.427 124.18L121.8 104.518C122.494 100.47 121.152 96.339 118.21 93.4719L103.925 79.5475C96.5183 72.3273 100.606 59.7478 110.842 58.2604L130.583 55.3918C134.648 54.8012 138.162 52.2481 139.98 48.5647L148.809 30.676Z" fill="#FFA938"/>
<path d="M108.3 65.0999L127.3 62.3999" stroke="#FFD49C" stroke-width="7" stroke-linecap="round"/>
<path d="M156.7 29L147.6 47.6" stroke="#FFD49C" stroke-width="7" stroke-linecap="round"/>
<path d="M46 170L0 176L18 203L2 232L50 226L46 170Z" fill="#007A55"/>
<path d="M274 170L320 176L302 203L318 232L270 226L274 170Z" fill="#007A55"/>
<path d="M30 206L50 226V200L30 206Z" fill="#006B4B"/>
<path d="M290 206L270 226V200L290 206Z" fill="#006B4B"/>
<path d="M30 150C116.667 123.333 203.333 123.333 290 150V206C203.333 179.333 116.667 179.333 30 206V150Z" fill="#007A55"/>
<path d="M77.8708 179.676L73.3236 154.757L79.3107 153.665L82.9424 173.566L92.6422 171.796L93.5578 176.813L77.8708 179.676Z" fill="white"/>
<path d="M99.1208 175.952L95.8744 150.831L111.79 148.774L112.439 153.798L102.559 155.075L103.161 159.728L111.557 158.643L112.211 163.701L103.814 164.786L104.503 170.114L114.754 168.789L115.407 173.847L99.1208 175.952Z" fill="white"/>
<path d="M125.693 172.922L116.243 148.228L122.651 147.748L126.396 159.061C126.881 160.388 127.309 161.697 127.678 162.988C128.07 164.277 128.499 165.609 128.966 166.983L129.135 166.97C129.415 165.54 129.641 164.16 129.814 162.828C130.01 161.495 130.238 160.137 130.498 158.754L132.484 147.013L138.655 146.552L132.983 172.376L125.693 172.922Z" fill="white"/>
<path d="M143.6 171.749L143.085 146.424L159.129 146.098L159.232 151.162L149.273 151.365L149.368 156.056L157.832 155.884L157.936 160.983L149.472 161.155L149.581 166.526L159.915 166.316L160.019 171.415L143.6 171.749Z" fill="white"/>
<path d="M165.884 171.472L166.717 146.156L172.8 146.356L172.134 166.575L181.989 166.899L181.821 171.997L165.884 171.472Z" fill="white"/>
<path d="M208.026 174.799C206.338 174.601 204.88 174.19 203.652 173.566C202.45 172.923 201.479 172.056 200.74 170.965C200.003 169.852 199.512 168.493 199.267 166.89C199.021 165.286 199.023 163.426 199.271 161.31L200.837 147.972L206.848 148.677L205.207 162.657C205.022 164.233 205.031 165.512 205.235 166.495C205.44 167.477 205.821 168.218 206.378 168.717C206.961 169.196 207.714 169.49 208.637 169.598C209.56 169.707 210.36 169.595 211.038 169.264C211.719 168.91 212.272 168.279 212.698 167.371C213.147 166.465 213.464 165.224 213.649 163.648L215.29 149.668L221.098 150.35L219.532 163.689C219.284 165.805 218.855 167.614 218.244 169.117C217.657 170.623 216.876 171.832 215.901 172.745C214.952 173.638 213.818 174.258 212.499 174.605C211.183 174.93 209.692 174.994 208.026 174.799Z" fill="white"/>
<path d="M224.288 176.454L228.75 151.52L237.518 153.089C239.348 153.417 240.964 153.971 242.367 154.751C243.797 155.514 244.852 156.566 245.533 157.908C246.236 159.254 246.404 160.954 246.037 163.007C245.685 164.97 244.938 166.506 243.796 167.614C242.68 168.704 241.321 169.416 239.718 169.751C238.115 170.086 236.433 170.096 234.67 169.78L231.758 169.259L230.279 177.526L224.288 176.454ZM232.603 164.54L235.213 165.007C236.663 165.267 237.803 165.137 238.633 164.618C239.467 164.076 239.994 163.192 240.213 161.965C240.437 160.715 240.202 159.775 239.509 159.144C238.842 158.496 237.784 158.041 236.333 157.782L233.89 157.345L232.603 164.54Z" fill="white"/>
</svg>
